<svg xmlns="http://www.w3.org/2000/svg" style="display: none;">
  <symbol id="icon-logo" viewBox="0 0 179 51" fill="none">
     <path d="M164.629 16.8636H167.699V21.5746L167.511 23.6605H167.699C168.027 23.1136 168.496 22.6683 169.105 22.3246C169.73 21.9652 170.425 21.7855 171.191 21.7855C172.675 21.7855 173.769 22.223 174.472 23.098C175.191 23.973 175.55 25.1683 175.55 26.684V33.6449H172.48V27.059C172.48 26.2621 172.293 25.6605 171.918 25.2543C171.543 24.8324 171.019 24.6215 170.347 24.6215C169.925 24.6215 169.55 24.7152 169.222 24.9027C168.894 25.0746 168.613 25.3168 168.379 25.6293C168.16 25.9418 167.988 26.309 167.863 26.7308C167.754 27.1371 167.699 27.5746 167.699 28.0433V33.6449H164.629V16.8636Z" fill="white"/>
  <path d="M163.459 30.7152C162.959 31.684 162.255 32.4808 161.349 33.1058C160.459 33.7152 159.341 34.0199 157.998 34.0199C157.107 34.0199 156.287 33.8715 155.537 33.5746C154.802 33.2621 154.162 32.8324 153.615 32.2855C153.083 31.7386 152.662 31.098 152.349 30.3636C152.052 29.6136 151.904 28.7933 151.904 27.9027C151.904 27.0121 152.052 26.1918 152.349 25.4418C152.662 24.6918 153.083 24.0511 153.615 23.5199C154.162 22.973 154.802 22.5511 155.537 22.2543C156.287 21.9418 157.107 21.7855 157.998 21.7855C159.326 21.7855 160.443 22.0902 161.349 22.6996C162.255 23.309 162.919 24.098 163.341 25.0668L160.529 26.2386C160.263 25.7074 159.919 25.309 159.498 25.0433C159.091 24.7621 158.576 24.6215 157.951 24.6215C157.544 24.6215 157.162 24.6996 156.802 24.8558C156.443 25.0121 156.123 25.2308 155.841 25.5121C155.576 25.7933 155.365 26.1371 155.208 26.5433C155.052 26.9496 154.974 27.4027 154.974 27.9027C154.974 28.4027 155.052 28.8558 155.208 29.2621C155.365 29.6683 155.576 30.0121 155.841 30.2933C156.123 30.5746 156.443 30.7933 156.802 30.9496C157.162 31.1058 157.544 31.184 157.951 31.184C158.591 31.184 159.13 31.0433 159.568 30.7621C160.021 30.4652 160.38 30.0433 160.646 29.4965L163.459 30.7152Z" fill="white"/>
  <path d="M151 30.8793C150.469 31.8168 149.75 32.5746 148.844 33.1527C147.953 33.7308 146.86 34.0199 145.563 34.0199C144.688 34.0199 143.875 33.8715 143.125 33.5746C142.391 33.2621 141.75 32.8324 141.203 32.2855C140.657 31.7386 140.227 31.098 139.914 30.3636C139.618 29.6136 139.469 28.7933 139.469 27.9027C139.469 27.0746 139.618 26.2933 139.914 25.559C140.211 24.809 140.625 24.1605 141.157 23.6136C141.688 23.0511 142.313 22.6058 143.032 22.2777C143.766 21.9496 144.571 21.7855 145.446 21.7855C146.368 21.7855 147.188 21.9418 147.907 22.2543C148.625 22.5511 149.227 22.973 149.711 23.5199C150.196 24.0511 150.563 24.684 150.813 25.4183C151.063 26.1527 151.188 26.9496 151.188 27.809C151.188 27.9183 151.188 28.0121 151.188 28.0902C151.172 28.184 151.164 28.2699 151.164 28.348C151.149 28.4261 151.141 28.5121 151.141 28.6058H142.493C142.555 29.0746 142.68 29.4808 142.868 29.8246C143.071 30.1527 143.313 30.434 143.594 30.6683C143.891 30.8871 144.211 31.0511 144.555 31.1605C144.899 31.2543 145.25 31.3011 145.61 31.3011C146.313 31.3011 146.891 31.1449 147.344 30.8324C147.813 30.5043 148.18 30.098 148.446 29.6136L151 30.8793ZM148.211 26.4261C148.196 26.223 148.125 25.9965 148 25.7465C147.891 25.4965 147.719 25.2621 147.485 25.0433C147.266 24.8246 146.985 24.6449 146.641 24.5043C146.313 24.3636 145.914 24.2933 145.446 24.2933C144.789 24.2933 144.211 24.4808 143.711 24.8558C143.211 25.2308 142.86 25.7543 142.657 26.4261H148.211Z" fill="white"/>
  <path d="M132.979 33.6449V19.8636H128.291V16.8636H140.83V19.8636H136.143V33.6449H132.979Z" fill="white"/>
  <path d="M127.596 30.8793C127.065 31.8168 126.346 32.5746 125.44 33.1527C124.549 33.7308 123.455 34.0199 122.158 34.0199C121.283 34.0199 120.471 33.8715 119.721 33.5746C118.986 33.2621 118.346 32.8324 117.799 32.2855C117.252 31.7386 116.822 31.098 116.51 30.3636C116.213 29.6136 116.065 28.7933 116.065 27.9027C116.065 27.0746 116.213 26.2933 116.51 25.559C116.807 24.809 117.221 24.1605 117.752 23.6136C118.283 23.0511 118.908 22.6058 119.627 22.2777C120.361 21.9496 121.166 21.7855 122.041 21.7855C122.963 21.7855 123.783 21.9418 124.502 22.2543C125.221 22.5511 125.822 22.973 126.307 23.5199C126.791 24.0511 127.158 24.684 127.408 25.4183C127.658 26.1527 127.783 26.9496 127.783 27.809C127.783 27.9183 127.783 28.0121 127.783 28.0902C127.768 28.184 127.76 28.2699 127.76 28.348C127.744 28.4261 127.736 28.5121 127.736 28.6058H119.088C119.151 29.0746 119.276 29.4808 119.463 29.8246C119.666 30.1527 119.908 30.434 120.19 30.6683C120.486 30.8871 120.807 31.0511 121.151 31.1605C121.494 31.2543 121.846 31.3011 122.205 31.3011C122.908 31.3011 123.486 31.1449 123.94 30.8324C124.408 30.5043 124.776 30.098 125.041 29.6136L127.596 30.8793ZM124.807 26.4261C124.791 26.223 124.721 25.9965 124.596 25.7465C124.486 25.4965 124.315 25.2621 124.08 25.0433C123.861 24.8246 123.58 24.6449 123.236 24.5043C122.908 24.3636 122.51 24.2933 122.041 24.2933C121.385 24.2933 120.807 24.4808 120.307 24.8558C119.807 25.2308 119.455 25.7543 119.252 26.4261H124.807Z" fill="white"/>
  <path d="M108.589 22.1605H111.472V23.7543H111.66C111.8 23.473 111.988 23.2152 112.222 22.9808C112.456 22.7465 112.714 22.5433 112.995 22.3715C113.292 22.1996 113.605 22.0668 113.933 21.973C114.277 21.8793 114.613 21.8324 114.941 21.8324C115.347 21.8324 115.691 21.8715 115.972 21.9496C116.269 22.0277 116.519 22.1293 116.722 22.2543L115.902 25.0433C115.714 24.9496 115.503 24.8793 115.269 24.8324C115.05 24.7699 114.777 24.7386 114.449 24.7386C114.027 24.7386 113.644 24.8246 113.3 24.9965C112.956 25.1527 112.66 25.3793 112.41 25.6761C112.175 25.973 111.988 26.3246 111.847 26.7308C111.722 27.1215 111.66 27.5511 111.66 28.0199V33.6449H108.589V22.1605Z" fill="white"/>
  <path d="M103.779 32.1449H103.592C103.232 32.723 102.748 33.184 102.139 33.5277C101.529 33.8558 100.834 34.0199 100.053 34.0199C98.5996 34.0199 97.5137 33.5746 96.7949 32.684C96.0918 31.7933 95.7402 30.6058 95.7402 29.1215V22.1605H98.8105V28.7465C98.8105 29.5746 98.9902 30.1918 99.3496 30.598C99.7246 30.9886 100.264 31.184 100.967 31.184C101.389 31.184 101.756 31.098 102.068 30.9261C102.396 30.7386 102.67 30.4965 102.889 30.1996C103.123 29.8871 103.295 29.5277 103.404 29.1215C103.529 28.6996 103.592 28.2543 103.592 27.7855V22.1605H106.662V33.6449H103.779V32.1449Z" fill="white"/>
  <path d="M88.3958 24.7855H86.3801V22.1605H88.3958V18.6449H91.4661V22.1605H94.2786V24.7855H91.4661V29.2387C91.4661 29.5043 91.4895 29.7543 91.5364 29.9886C91.5989 30.2074 91.7083 30.3949 91.8645 30.5512C92.0833 30.8012 92.3958 30.9262 92.802 30.9262C93.0676 30.9262 93.2786 30.9027 93.4348 30.8558C93.5911 30.7933 93.7395 30.7152 93.8801 30.6215L94.7473 33.3168C94.3879 33.4887 93.9973 33.6137 93.5754 33.6918C93.1692 33.7855 92.7161 33.8324 92.2161 33.8324C91.6379 33.8324 91.1145 33.7465 90.6458 33.5746C90.1926 33.3871 89.8098 33.1371 89.4973 32.8246C88.7629 32.1215 88.3958 31.1215 88.3958 29.8246V24.7855Z" fill="white"/>
  <path d="M82.2058 32.1449H82.0183C81.6589 32.723 81.1746 33.184 80.5652 33.5277C79.9558 33.8558 79.2605 34.0199 78.4792 34.0199C77.0261 34.0199 75.9402 33.5746 75.2214 32.684C74.5183 31.7933 74.1667 30.6058 74.1667 29.1215V22.1605H77.2371V28.7465C77.2371 29.5746 77.4167 30.1918 77.7761 30.598C78.1511 30.9886 78.6902 31.184 79.3933 31.184C79.8152 31.184 80.1824 31.098 80.4949 30.9261C80.823 30.7386 81.0964 30.4965 81.3152 30.1996C81.5496 29.8871 81.7214 29.5277 81.8308 29.1215C81.9558 28.6996 82.0183 28.2543 82.0183 27.7855V22.1605H85.0886V33.6449H82.2058V32.1449Z" fill="white"/>
  <path d="M62.7273 16.8636H73.3679V19.8636H65.8914V23.9418H72.6179V26.9418H65.8914V33.6449H62.7273V16.8636Z" fill="white"/>
  <path d="M33.3333 50.5V42.1666C37.9444 42.1666 41.6666 38.4444 41.6666 33.8333H49.9999C49.9999 43.0555 42.5277 50.5 33.3333 50.5Z" fill="#FFD11A"/>
  <path d="M33.3333 50.5V42.1666C28.7222 42.1666 25 38.4444 25 33.8333H16.6666C16.6666 43.0555 24.1388 50.5 33.3333 50.5Z" fill="#FFD11A"/>
  <path d="M0 33.8334H8.33333C8.33333 38.4445 12.0556 42.1667 16.6667 42.1667V50.5C7.47222 50.5 0 43.0556 0 33.8334Z" fill="#FFD11A"/>
  <path d="M0 33.8334H8.33333C8.33333 29.2222 12.0556 25.5 16.6667 25.5V17.1667C7.47222 17.1667 0 24.6389 0 33.8334Z" fill="#FFD11A"/>
  <path d="M16.6667 0.5V8.83333C12.0556 8.83333 8.33333 12.5556 8.33333 17.1667H0C0 7.97222 7.47222 0.5 16.6667 0.5Z" fill="#FFD11A"/>
  <path d="M16.6666 0.5V8.83333C21.2777 8.83333 25 12.5556 25 17.1667H33.3333C33.3333 7.97222 25.8611 0.5 16.6666 0.5Z" fill="#FFD11A"/>
  <path d="M50 17.1667H41.6667C41.6667 12.5556 37.9445 8.83333 33.3334 8.83333V0.5C42.5278 0.5 50 7.97222 50 17.1667Z" fill="#FFD11A"/>
  <path d="M50 17.1667H41.6667C41.6667 21.7778 37.9445 25.5 33.3334 25.5V33.8334C42.5278 33.8334 50 26.3889 50 17.1667Z" fill="#FFD11A"/>
  </symbol>
</svg>

<svg xmlns="http://www.w3.org/2000/svg" style="display: none;">
  <symbol id="icon-arrow" viewBox="0 0 25 25" fill="none">
    <path fill-rule="evenodd" clip-rule="evenodd" d="M8.75 4.25L20 4.25C20.1989 4.25 20.3897 4.32902 20.5303 4.46967C20.671 4.61032 20.75 4.80109 20.75 5V16.25C20.75 16.6642 20.4142 17 20 17C19.5858 17 19.25 16.6642 19.25 16.25V6.81066L5.53033 20.5303C5.23744 20.8232 4.76256 20.8232 4.46967 20.5303C4.17678 20.2374 4.17678 19.7626 4.46967 19.4697L18.1893 5.75L8.75 5.75C8.33579 5.75 8 5.41421 8 5C8 4.58579 8.33579 4.25 8.75 4.25Z" fill="#FFD11A"/>
  </symbol>
</svg>

<svg xmlns="http://www.w3.org/2000/svg" style="display: none;">
  <symbol id="icon-cross" viewBox="0 0 50 50" fill="none">
    <path d="M28.9275 34.4167H21.1219V50H28.9275V34.4167Z" fill="#FFD11A"/>
    <path d="M28.9275 0H21.1219V15.5833H28.9275V0Z" fill="#FFD11A"/>
    <path d="M34.4097 21.0945V28.9001H49.993V21.0945H34.4097Z" fill="#FFD11A"/>
    <path d="M0 21.1016L0 28.9072H15.5833V21.1016H0Z" fill="#FFD11A"/>
    <path d="M34.4245 28.8769L28.9052 34.3962L39.9241 45.4151L45.4434 39.8958L34.4245 28.8769Z" fill="#404040"/>
    <path d="M10.0906 4.54558L4.57129 10.0649L15.5903 21.0839L21.1096 15.5646L10.0906 4.54558Z" fill="#404040"/>
    <path d="M28.886 15.5885L34.4053 21.1078L45.4243 10.0888L39.9049 4.56949L28.886 15.5885Z" fill="#404040"/>
    <path d="M4.55724 39.9197L10.0765 45.439L21.0955 34.4201L15.5762 28.9008L4.55724 39.9197Z" fill="#404040"/>
  </symbol>
</svg>


<svg xmlns="http://www.w3.org/2000/svg" style="display: none;">
  <symbol id="icon-target" viewBox="0 0 51 50" fill="none">
    <path d="M25.3335 35C25.3335 40.5228 29.8106 45 35.3335 45C40.8563 45 45.3335 40.5228 45.3335 35C45.3335 29.4772 40.8563 25 35.3335 25H25.3335V35Z" fill="#FFD11A"/>
    <path d="M25.3335 15C25.3335 9.47715 20.8563 5 15.3335 5C9.81065 5 5.3335 9.47715 5.3335 15C5.3335 20.5228 9.81065 25 15.3335 25H25.3335V15Z" fill="#FFD11A"/>
    <path fill-rule="evenodd" clip-rule="evenodd" d="M35.3335 5C29.8106 5 25.3335 9.47715 25.3335 15V25H35.3335C40.8563 25 45.3335 20.5228 45.3335 15C45.3335 9.47715 40.8563 5 35.3335 5ZM40.3335 15C40.3335 17.7614 38.0949 20 35.3335 20C32.5721 20 30.3335 17.7614 30.3335 15C30.3335 12.2386 32.5721 10 35.3335 10C38.0949 10 40.3335 12.2386 40.3335 15Z" fill="#404040"/>
    <path fill-rule="evenodd" clip-rule="evenodd" d="M15.3335 45C20.8563 45 25.3335 40.5228 25.3335 35V25H15.3335C9.81065 25 5.3335 29.4772 5.3335 35C5.3335 40.5228 9.81065 45 15.3335 45ZM20.3335 35C20.3335 37.7614 18.0949 40 15.3335 40C12.5721 40 10.3335 37.7614 10.3335 35C10.3335 32.2386 12.5721 30 15.3335 30C18.0949 30 20.3335 32.2386 20.3335 35Z" fill="#404040"/>
  </symbol>
</svg>


<svg xmlns="http://www.w3.org/2000/svg" style="display: none;">
  <symbol id="icon-ellipse" viewBox="0 0 51 50" fill="none">
    <path d="M5.66675 5H25.6667C36.7124 5 45.6667 13.9543 45.6667 25H25.6667C14.6211 25 5.66675 16.0457 5.66675 5Z" fill="#FFD11A"/>
    <path d="M5.66675 25H25.6667C36.7124 25 45.6667 33.9543 45.6667 45H25.6667C14.6211 45 5.66675 36.0457 5.66675 25Z" fill="#404040"/>
  </symbol>
</svg>


<svg xmlns="http://www.w3.org/2000/svg" style="display: none;">
  <symbol id="icon-circles" viewBox="0 0 80 80" fill="none">
    <path d="M54 54C64.6731 51.4308 72 46.1265 72 40C72 33.8735 64.6731 28.5692 54 26C55.098 30.2126 55.716 34.9676 55.716 40C55.716 45.0324 55.098 49.7874 54 54Z" fill="#404040"/>
    <path d="M26 54C15.3269 51.4308 8 46.1265 8 40C8 33.8735 15.3269 28.5692 26 26C24.902 30.2126 24.284 34.9676 24.284 40C24.284 45.0324 24.902 49.7874 26 54Z" fill="#404040"/>
    <path d="M26 54C28.5692 64.6731 33.8735 72 40 72C46.1265 72 51.4308 64.6731 54 54C49.7874 55.098 45.0324 55.716 40 55.716C34.9676 55.716 30.2126 55.098 26 54Z" fill="#FFD11A"/>
    <path d="M26 26C28.5692 15.3269 33.8735 8 40 8C46.1265 8 51.4308 15.3269 54 26C49.7874 24.902 45.0324 24.284 40 24.284C34.9676 24.284 30.2126 24.902 26 26Z" fill="#FFD11A"/>
  </symbol>
</svg>

<svg xmlns="http://www.w3.org/2000/svg" style="display: none;">
  <symbol id="icon-triangle-rectangle" viewBox="0 0 93 80" fill="none">
    <path d="M21.4603 55.2679V80H70.9759V55.2679H21.4603Z" fill="#FFD11A"/>
    <path d="M70.9656 55.2465L92.3835 42.8805L67.6258 2.81499e-05L46.2078 12.3661L70.9656 55.2465Z" fill="#404040"/>
    <path d="M46.1758 12.3996L24.7578 0.0335693L3.8147e-05 42.914L21.418 55.2801L46.1758 12.3996Z" fill="#404040"/>
  </symbol>
</svg>




<svg xmlns="http://www.w3.org/2000/svg" style="display: none;">
  <symbol id="circle-arrow" viewBox="0 0 24 25">
    <path d="M8.48581 19.6888C9.54657 20.2083 10.7392 20.5 12 20.5C16.4183 20.5 20 16.9183 20 12.5C20 8.08172 16.4183 4.5 12 4.5C7.58172 4.5 4 8.08172 4 12.5C4 14.1401 4.49356 15.665 5.34026 16.9341M8.48581 19.6888L4 20.5L5.34026 16.9341M8.48581 19.6888L8.49231 19.6877M5.34026 16.9341L5.34154 16.9308" stroke="#666666" stroke-width="1.5" stroke-linecap="round" stroke-linejoin="round"/>
  </symbol>
</svg>

<svg xmlns="http://www.w3.org/2000/svg" style="display: none;">
  <symbol id="arrow-icon" viewBox="0 0 24 25">
    <path d="M10.0384 14.4616L4.1719 11.7951C3.36454 11.4281 3.39898 10.2697 4.22673 9.95134L18.8999 4.30781C19.7087 3.99675 20.5033 4.79139 20.1922 5.60013L14.5487 20.2733C14.2303 21.1011 13.072 21.1355 12.705 20.3281L10.0384 14.4616ZM10.0384 14.4616L14.4231 10.077" stroke="#666666" stroke-width="1.5" stroke-linecap="round" stroke-linejoin="round"/>
  </symbol>
</svg>


<svg xmlns="http://www.w3.org/2000/svg" style="display: none;">
  <symbol id="icon-circle" viewBox="0 0 80 81">
    <path d="M38 46.5C38 34.9899 71.5265 14.5014 69.9458 22.1794C66.6426 38.2247 66.6426 54.7753 69.9458 70.8206C71.5265 78.4986 38 58.0101 38 46.5Z" fill="#FFD11A"/>
    <path d="M42 34.5C42 46.0101 8.47352 66.4986 10.0542 58.8206C13.3574 42.7753 13.3574 26.2247 10.0542 10.1794C8.47353 2.50136 42 22.9899 42 34.5Z" fill="#404040"/>
  </symbol>
</svg>

<svg xmlns="http://www.w3.org/2000/svg" style="display: none;">
  <symbol id="icon-circle-dash" viewBox="0 0 24 25">
    <path d="M21.6029 11.3275C21.8585 11.6491 22 12.0668 22 12.5C22 12.9332 21.8585 13.351 21.6029 13.6725C19.9845 15.65 16.3005 19.5 12 19.5C7.69952 19.5 4.01559 15.65 2.39712 13.6725C2.1415 13.351 2 12.9332 2 12.5C2 12.0668 2.1415 11.6491 2.39712 11.3275C4.01559 9.35 7.69952 5.5 12 5.5C16.3005 5.5 19.9845 9.35 21.6029 11.3275Z" stroke="#FFD11A" stroke-width="1.5" stroke-linecap="round" stroke-linejoin="round"/>
    <path d="M12.0005 15.6109C13.7031 15.6109 15.0833 14.2181 15.0833 12.4999C15.0833 10.7817 13.7031 9.38879 12.0005 9.38879C10.2979 9.38879 8.91772 10.7817 8.91772 12.4999C8.91772 14.2181 10.2979 15.6109 12.0005 15.6109Z" stroke="#FFD11A" stroke-width="1.5" stroke-linecap="round" stroke-linejoin="round"/>
  </symbol>
</svg>


<svg xmlns="http://www.w3.org/2000/svg" style="display: none;">
  <symbol id="icon-triangle" viewBox="0 0 80 81">
    <path d="M40 8.5V72.5L12 56.5V24.5L40 8.5Z" fill="#FFD11A"/>
    <path d="M68 8.5V72.5L40 56.5V24.5L68 8.5Z" fill="#404040"/>
  </symbol>
</svg>


<svg xmlns="http://www.w3.org/2000/svg" style="display: none;">
  <symbol id="icon-circle" viewBox="0 0 24 25">
    <path d="M21.6029 11.3275C21.8585 11.6491 22 12.0668 22 12.5C22 12.9332 21.8585 13.351 21.6029 13.6725C19.9845 15.65 16.3005 19.5 12 19.5C7.69952 19.5 4.01559 15.65 2.39712 13.6725C2.1415 13.351 2 12.9332 2 12.5C2 12.0668 2.1415 11.6491 2.39712 11.3275C4.01559 9.35 7.69952 5.5 12 5.5C16.3005 5.5 19.9845 9.35 21.6029 11.3275Z" stroke="#FFD11A" stroke-width="1.5" stroke-linecap="round" stroke-linejoin="round"/>
    <path d="M12.0005 15.6109C13.7031 15.6109 15.0833 14.2181 15.0833 12.4999C15.0833 10.7817 13.7031 9.38879 12.0005 9.38879C10.2979 9.38879 8.91772 10.7817 8.91772 12.4999C8.91772 14.2181 10.2979 15.6109 12.0005 15.6109Z" stroke="#FFD11A" stroke-width="1.5" stroke-linecap="round" stroke-linejoin="round"/>
  </symbol>
</svg>


<svg xmlns="http://www.w3.org/2000/svg" style="display: none;">
  <symbol id="icon-circle-quarters" viewBox="0 0 150 151">
    <path d="M99.9989 150.5V125.5C113.832 125.5 124.999 114.334 124.999 100.5H149.998C149.998 128.167 127.582 150.5 99.9989 150.5Z" fill="#FFD11A"/>
    <path d="M99.9991 150.5V125.5C86.1659 125.5 74.9993 114.334 74.9993 100.5H49.9996C49.9996 128.167 72.416 150.5 99.9991 150.5Z" fill="#FFD11A"/>
    <path d="M0 100.498H24.9997C24.9997 114.331 36.1662 125.498 49.9994 125.498V150.497C22.4164 150.497 0 128.164 0 100.498Z" fill="#FFD11A"/>
    <path d="M0 100.499H24.9997C24.9997 86.6662 36.1662 75.4997 49.9994 75.4997V50.5C22.4164 50.5 0 72.9164 0 100.499Z" fill="#FFD11A"/>
    <path d="M49.9994 0.500488V25.5002C36.1662 25.5002 24.9997 36.6667 24.9997 50.4999H0C0 22.9169 22.4164 0.500488 49.9994 0.500488Z" fill="#FFD11A"/>
    <path d="M49.9995 0.500488V25.5002C63.8327 25.5002 74.9992 36.6667 74.9992 50.4999H99.9989C99.9989 22.9169 77.5825 0.500488 49.9995 0.500488Z" fill="#FFD11A"/>
    <path d="M149.998 50.4999H124.998C124.998 36.6667 113.832 25.5002 99.9987 25.5002V0.500488C127.582 0.500488 149.998 22.9169 149.998 50.4999Z" fill="#FFD11A"/>
    <path d="M149.998 50.4995H124.998C124.998 64.3327 113.832 75.4992 99.9987 75.4992V100.499C127.582 100.499 149.998 78.1659 149.998 50.4995Z" fill="#FFD11A"/>
  </symbol>
</svg>


<svg xmlns="http://www.w3.org/2000/svg" style="display: none;">
  <symbol id="icon-arrow" viewBox="0 0 25 24">
    <path fill-rule="evenodd" clip-rule="evenodd" d="M8.58325 3.75L19.8333 3.75C20.0322 3.75 20.2229 3.82902 20.3636 3.96967C20.5042 4.11032 20.5833 4.30109 20.5833 4.5V15.75C20.5833 16.1642 20.2475 16.5 19.8333 16.5C19.419 16.5 19.0833 16.1642 19.0833 15.75V6.31066L5.36358 20.0303C5.07069 20.3232 4.59582 20.3232 4.30292 20.0303C4.01003 19.7374 4.01003 19.2626 4.30292 18.9697L18.0226 5.25L8.58325 5.25C8.16904 5.25 7.83325 4.91421 7.83325 4.5C7.83325 4.08579 8.16904 3.75 8.58325 3.75Z" fill="#141414"/>
  </symbol>
</svg>

<svg xmlns="http://www.w3.org/2000/svg" style="display: none;">
  <symbol id="icon-rotate" viewBox="0 0 20 20">
    <path d="M17.5475 5.98396C17.5552 6.15996 17.5552 6.32796 17.5552 6.50396C17.563 11.84 13.6426 18 6.47319 18C4.35865 18 2.2827 17.368 0.5 16.184C0.808692 16.224 1.11738 16.24 1.42608 16.24C3.1779 16.24 4.88343 15.632 6.26483 14.504C4.59789 14.472 3.1316 13.344 2.62226 11.696C3.20877 11.816 3.81072 11.792 4.3818 11.624C2.56824 11.256 1.26401 9.59997 1.2563 7.67197C1.2563 7.65597 1.2563 7.63997 1.2563 7.62397C1.79651 7.93597 2.40617 8.11197 3.02356 8.12797C1.31803 6.94396 0.78554 4.58396 1.81966 2.73595C3.80301 5.26396 6.72015 6.79196 9.85337 6.95996C9.53696 5.55996 9.96913 4.08796 10.9801 3.09595C12.5467 1.56795 15.0162 1.64795 16.498 3.27195C17.37 3.09595 18.2112 2.75995 18.9752 2.28795C18.682 3.22395 18.0723 4.01596 17.262 4.51996C18.0337 4.42396 18.79 4.20796 19.5 3.88795C18.9752 4.70396 18.3115 5.40796 17.5475 5.98396Z" fill="white"/>
  </symbol>
</svg>


<svg xmlns="http://www.w3.org/2000/svg" style="display: none;">
  <symbol id="icon-circle" viewBox="0 0 20 20">
    <path d="M11.2812 10.1897C11.2812 13.332 8.75578 15.8793 5.6407 15.8793C2.52561 15.8793 0 13.3314 0 10.1897C0 7.04806 2.52542 4.5 5.6407 4.5C8.75597 4.5 11.2812 7.04749 11.2812 10.1897Z" fill="white"/>
    <path d="M17.4688 10.19C17.4688 13.1477 16.2061 15.5464 14.6485 15.5464C13.0908 15.5464 11.8281 13.1477 11.8281 10.19C11.8281 7.23219 13.0906 4.8335 14.6483 4.8335C16.2059 4.8335 17.4686 7.23142 17.4686 10.19" fill="white"/>
    <path d="M20.0003 10.1897C20.0003 12.8391 19.5562 14.9882 19.0083 14.9882C18.4604 14.9882 18.0166 12.8397 18.0166 10.1897C18.0166 7.53965 18.4606 5.39111 19.0083 5.39111C19.556 5.39111 20.0003 7.53946 20.0003 10.1897Z" fill="white"/>
  </symbol>
</svg>


<svg xmlns="http://www.w3.org/2000/svg" style="display: none;">
  <symbol id="icon-facebook" viewBox="0 0 20 20">
    <path d="M17.3868 1.3335H2.61255C2.27319 1.3335 1.94774 1.4683 1.70778 1.70826C1.46782 1.94822 1.33301 2.27368 1.33301 2.61303V17.3873C1.33301 17.7266 1.46782 18.0521 1.70778 18.2921C1.94774 18.532 2.27319 18.6668 2.61255 18.6668H17.3868C17.7262 18.6668 18.0516 18.532 18.2916 18.2921C18.5315 18.0521 18.6663 17.7266 18.6663 17.3873V2.61303C18.6663 2.27368 18.5315 1.94822 18.2916 1.70826C18.0516 1.4683 17.7262 1.3335 17.3868 1.3335ZM6.4993 16.0993H3.89329V7.82146H6.4993V16.0993ZM5.19449 6.67433C4.89888 6.67266 4.61039 6.58347 4.36543 6.418C4.12046 6.25254 3.93 6.01821 3.81809 5.7446C3.70617 5.471 3.67781 5.17037 3.73659 4.88066C3.79536 4.59095 3.93864 4.32514 4.14834 4.11678C4.35804 3.90843 4.62476 3.76686 4.91484 3.70994C5.20493 3.65302 5.50537 3.68331 5.77825 3.79699C6.05113 3.91066 6.28423 4.10262 6.44812 4.34864C6.61201 4.59466 6.69935 4.88372 6.69912 5.17933C6.70191 5.37724 6.66482 5.57369 6.59007 5.75697C6.51532 5.94024 6.40444 6.10659 6.26403 6.2461C6.12362 6.38561 5.95657 6.49542 5.77281 6.56899C5.58906 6.64257 5.39238 6.67839 5.19449 6.67433ZM16.1049 16.1066H13.5V11.5842C13.5 10.2505 12.9331 9.83887 12.2013 9.83887C11.4285 9.83887 10.6701 10.4215 10.6701 11.6179V16.1066H8.06412V7.82748H10.5702V8.97461H10.6039C10.8555 8.46544 11.7366 7.59516 13.0812 7.59516C14.5352 7.59516 16.1061 8.45822 16.1061 10.986L16.1049 16.1066Z" fill="white"/>
  </symbol>
</svg>


<svg xmlns="http://www.w3.org/2000/svg" width="24" height="25" viewBox="0 0 24 25" fill="none">
<symbol id="icon-heard" viewBox="0 0 20 20">
<path d="M11.645 21.4107L11.6384 21.4072L11.6158 21.3949C11.5965 21.3844 11.5689 21.3693 11.5336 21.3496C11.4629 21.3101 11.3612 21.2524 11.233 21.1769C10.9765 21.0261 10.6132 20.8039 10.1785 20.515C9.31074 19.9381 8.15122 19.0901 6.9886 18.0063C4.68781 15.8615 2.25 12.6751 2.25 8.75C2.25 5.82194 4.7136 3.5 7.6875 3.5C9.43638 3.5 11.0023 4.29909 12 5.5516C12.9977 4.29909 14.5636 3.5 16.3125 3.5C19.2864 3.5 21.75 5.82194 21.75 8.75C21.75 12.6751 19.3122 15.8615 17.0114 18.0063C15.8488 19.0901 14.6893 19.9381 13.8215 20.515C13.3868 20.8039 13.0235 21.0261 12.767 21.1769C12.6388 21.2524 12.5371 21.3101 12.4664 21.3496C12.4311 21.3693 12.4035 21.3844 12.3842 21.3949L12.3616 21.4072L12.355 21.4107L12.3523 21.4121C12.1323 21.5289 11.8677 21.5289 11.6477 21.4121L11.645 21.4107Z"/>
</svg>

<svg xmlns="http://www.w3.org/2000/svg" width="24" height="25" viewBox="0 0 24 25" fill="none">
<symbol id="icon-coment" viewBox="0 0 20 20">
<path d="M8.48581 19.6888C9.54657 20.2083 10.7392 20.5 12 20.5C16.4183 20.5 20 16.9183 20 12.5C20 8.08172 16.4183 4.5 12 4.5C7.58172 4.5 4 8.08172 4 12.5C4 14.1401 4.49356 15.665 5.34026 16.9341M8.48581 19.6888L4 20.5L5.34026 16.9341M8.48581 19.6888L8.49231 19.6877M5.34026 16.9341L5.34154 16.9308" stroke="#666666" stroke-width="1.5" stroke-linecap="round" stroke-linejoin="round"/>
</svg>

<svg xmlns="http://www.w3.org/2000/svg" width="24" height="25" viewBox="0 0 24 25" fill="none">
<symbol id="icon-plane" viewBox="0 0 20 20">
<path d="M10.0384 14.4616L4.1719 11.7951C3.36454 11.4281 3.39898 10.2697 4.22673 9.95134L18.8999 4.30781C19.7087 3.99675 20.5033 4.79139 20.1922 5.60013L14.5487 20.2733C14.2303 21.1011 13.072 21.1355 12.705 20.3281L10.0384 14.4616ZM10.0384 14.4616L14.4231 10.077" stroke="#666666" stroke-width="1.5" stroke-linecap="round" stroke-linejoin="round"/>
</svg>

<svg xmlns="http://www.w3.org/2000/svg" width="20" height="20" viewBox="0 0 20 20" fill="none">
<symbol id="icon-star" viewBox="0 0 20 20">
<path d="M7.94128 1.9429C8.71397 0.62493 10.6193 0.624932 11.392 1.9429L13.1178 4.88664C13.3998 5.36761 13.8697 5.70904 14.4143 5.8286L17.7473 6.5603C19.2395 6.8879 19.8283 8.69996 18.8136 9.8421L16.5472 12.3931C16.177 12.8099 15.9975 13.3624 16.052 13.9173L16.3861 17.3132C16.5357 18.8337 14.9942 19.9536 13.5944 19.3415L10.4679 17.9744C9.95707 17.751 9.37618 17.751 8.86535 17.9744L5.73883 19.3415C4.33903 19.9536 2.7976 18.8337 2.94716 17.3132L3.28122 13.9173C3.3358 13.3624 3.15629 12.8099 2.786 12.3931L0.519648 9.8421C-0.495038 8.69995 0.0937374 6.8879 1.58597 6.5603L4.91895 5.8286C5.46352 5.70904 5.93346 5.36761 6.21544 4.88664L7.94128 1.9429Z" fill="#FFCE22"/>
</svg>

<svg xmlns="http://www.w3.org/2000/svg" width="70" height="70" viewBox="0 0 70 70" fill="none">
<symbol id="icon-button" viewBox="0 0 20 20">
<path fill-rule="evenodd" clip-rule="evenodd" d="M6.5625 35C6.5625 19.2944 19.2944 6.5625 35 6.5625C50.7056 6.5625 63.4375 19.2944 63.4375 35C63.4375 50.7056 50.7056 63.4375 35 63.4375C19.2944 63.4375 6.5625 50.7056 6.5625 35ZM47.4663 32.1318C49.7167 33.382 49.7167 36.6183 47.4663 37.8685L31.1248 46.9471C28.9377 48.1621 26.25 46.5807 26.25 44.0788V25.9215C26.25 23.4196 28.9377 21.8381 31.1248 23.0531L47.4663 32.1318Z" fill="white"/>
</svg>

<svg xmlns="http://www.w3.org/2000/svg" width="25" height="25" viewBox="0 0 25 25" fill="none">
<symbol id="icon-arrow-down" viewBox="0 0 20 20">
<path fill-rule="evenodd" clip-rule="evenodd" d="M12.5 4.25C12.9142 4.25 13.25 4.58579 13.25 5L13.25 18.1893L18.7197 12.7197C19.0126 12.4268 19.4874 12.4268 19.7803 12.7197C20.0732 13.0126 20.0732 13.4874 19.7803 13.7803L13.0303 20.5303C12.7374 20.8232 12.2626 20.8232 11.9697 20.5303L5.21967 13.7803C4.92678 13.4874 4.92678 13.0126 5.21967 12.7197C5.51256 12.4268 5.98744 12.4268 6.28033 12.7197L11.75 18.1893L11.75 5C11.75 4.58579 12.0858 4.25 12.5 4.25Z" fill="#98989A"/>
</svg>

<svg xmlns="http://www.w3.org/2000/svg" width="34" height="34" viewBox="0 0 34 34" fill="none">
<symbol id="icon-eye" viewBox="0 0 20 20">
<path d="M30.6048 15.339C30.9669 15.7945 31.1673 16.3864 31.1673 17C31.1673 17.6137 30.9669 18.2055 30.6048 18.6611C28.312 21.4625 23.093 26.9167 17.0007 26.9167C10.9083 26.9167 5.6894 21.4625 3.39658 18.6611C3.03444 18.2055 2.83398 17.6137 2.83398 17C2.83398 16.3864 3.03444 15.7945 3.39658 15.339C5.6894 12.5375 10.9083 7.08333 17.0007 7.08333C23.093 7.08333 28.312 12.5375 30.6048 15.339Z" stroke="#98989A" stroke-width="1.5" stroke-linecap="round" stroke-linejoin="round"/>
<path d="M17.0014 21.4072C19.4134 21.4072 21.3687 19.4339 21.3687 16.9998C21.3687 14.5657 19.4134 12.5925 17.0014 12.5925C14.5894 12.5925 12.6341 14.5657 12.6341 16.9998C12.6341 19.4339 14.5894 21.4072 17.0014 21.4072Z" stroke="#98989A" stroke-width="1.5" stroke-linecap="round" stroke-linejoin="round"/>
</svg>