<svg width="21" height="20" viewBox="0 0 21 20" fill="none" xmlns="http://www.w3.org/2000/svg">
<path fill-rule="evenodd" clip-rule="evenodd" d="M7.20703 3.125L16.582 3.125C16.7478 3.125 16.9068 3.19085 17.024 3.30806C17.1412 3.42527 17.207 3.58424 17.207 3.75V13.125C17.207 13.4702 16.9272 13.75 16.582 13.75C16.2369 13.75 15.957 13.4702 15.957 13.125V5.25888L4.52397 16.6919C4.2799 16.936 3.88417 16.936 3.64009 16.6919C3.39601 16.4479 3.39601 16.0521 3.64009 15.8081L15.0731 4.375L7.20703 4.375C6.86185 4.375 6.58203 4.09518 6.58203 3.75C6.58203 3.40482 6.86185 3.125 7.20703 3.125Z" fill="#141414"/>
</svg>
