<svg width="114" height="19" viewBox="0 0 114 19" fill="none" xmlns="http://www.w3.org/2000/svg">
<path d="M102.629 0.863647H105.699V5.57458L105.511 7.66052H105.699C106.027 7.11365 106.496 6.66833 107.105 6.32458C107.73 5.96521 108.425 5.78552 109.191 5.78552C110.675 5.78552 111.769 6.22302 112.472 7.09802C113.191 7.97302 113.55 9.16833 113.55 10.684V17.6449H110.48V11.059C110.48 10.2621 110.293 9.66052 109.918 9.25427C109.543 8.8324 109.019 8.62146 108.347 8.62146C107.925 8.62146 107.55 8.71521 107.222 8.90271C106.894 9.07458 106.613 9.31677 106.379 9.62927C106.16 9.94177 105.988 10.309 105.863 10.7308C105.754 11.1371 105.699 11.5746 105.699 12.0433V17.6449H102.629V0.863647Z" fill="white"/>
<path d="M101.459 14.7152C100.959 15.684 100.255 16.4808 99.3491 17.1058C98.4585 17.7152 97.3413 18.0199 95.9976 18.0199C95.1069 18.0199 94.2866 17.8715 93.5366 17.5746C92.8022 17.2621 92.1616 16.8324 91.6147 16.2855C91.0835 15.7386 90.6616 15.098 90.3491 14.3636C90.0523 13.6136 89.9038 12.7933 89.9038 11.9027C89.9038 11.0121 90.0523 10.1918 90.3491 9.44177C90.6616 8.69177 91.0835 8.05115 91.6147 7.5199C92.1616 6.97302 92.8022 6.55115 93.5366 6.25427C94.2866 5.94177 95.1069 5.78552 95.9976 5.78552C97.3257 5.78552 98.4429 6.09021 99.3491 6.69959C100.255 7.30896 100.919 8.09802 101.341 9.06677L98.5288 10.2386C98.2632 9.7074 97.9194 9.30896 97.4976 9.04334C97.0913 8.76209 96.5757 8.62146 95.9507 8.62146C95.5444 8.62146 95.1616 8.69959 94.8022 8.85584C94.4429 9.01209 94.1226 9.23084 93.8413 9.51209C93.5757 9.79334 93.3647 10.1371 93.2085 10.5433C93.0522 10.9496 92.9741 11.4027 92.9741 11.9027C92.9741 12.4027 93.0522 12.8558 93.2085 13.2621C93.3647 13.6683 93.5757 14.0121 93.8413 14.2933C94.1226 14.5746 94.4429 14.7933 94.8022 14.9496C95.1616 15.1058 95.5444 15.184 95.9507 15.184C96.5913 15.184 97.1304 15.0433 97.5679 14.7621C98.021 14.4652 98.3804 14.0433 98.646 13.4965L101.459 14.7152Z" fill="white"/>
<path d="M89.0004 14.8793C88.4691 15.8168 87.7504 16.5746 86.8441 17.1527C85.9535 17.7308 84.8597 18.0199 83.5629 18.0199C82.6879 18.0199 81.8754 17.8715 81.1254 17.5746C80.391 17.2621 79.7504 16.8324 79.2035 16.2855C78.6566 15.7386 78.2269 15.098 77.9144 14.3636C77.6176 13.6136 77.4691 12.7933 77.4691 11.9027C77.4691 11.0746 77.6176 10.2933 77.9144 9.55896C78.2113 8.80896 78.6254 8.16052 79.1566 7.61365C79.6879 7.05115 80.3129 6.60584 81.0316 6.27771C81.766 5.94959 82.5707 5.78552 83.4457 5.78552C84.3676 5.78552 85.1879 5.94177 85.9066 6.25427C86.6254 6.55115 87.2269 6.97302 87.7113 7.5199C88.1957 8.05115 88.5629 8.68396 88.8129 9.41834C89.0629 10.1527 89.1879 10.9496 89.1879 11.809C89.1879 11.9183 89.1879 12.0121 89.1879 12.0902C89.1722 12.184 89.1644 12.2699 89.1644 12.348C89.1488 12.4261 89.141 12.5121 89.141 12.6058H80.4926C80.5551 13.0746 80.6801 13.4808 80.8676 13.8246C81.0707 14.1527 81.3129 14.434 81.5941 14.6683C81.891 14.8871 82.2113 15.0511 82.5551 15.1605C82.8988 15.2543 83.2504 15.3011 83.6097 15.3011C84.3129 15.3011 84.891 15.1449 85.3441 14.8324C85.8129 14.5043 86.1801 14.098 86.4457 13.6136L89.0004 14.8793ZM86.2113 10.4261C86.1957 10.223 86.1254 9.99646 86.0004 9.74646C85.891 9.49646 85.7191 9.26209 85.4847 9.04334C85.266 8.82459 84.9847 8.6449 84.641 8.50427C84.3129 8.36365 83.9144 8.29333 83.4457 8.29333C82.7894 8.29333 82.2113 8.48084 81.7113 8.85584C81.2113 9.23084 80.8597 9.75427 80.6566 10.4261H86.2113Z" fill="white"/>
<path d="M70.9786 17.6449V3.86365H66.2911V0.863647H78.8302V3.86365H74.1427V17.6449H70.9786Z" fill="white"/>
<path d="M65.5958 14.8793C65.0646 15.8168 64.3458 16.5746 63.4396 17.1527C62.549 17.7308 61.4552 18.0199 60.1583 18.0199C59.2833 18.0199 58.4708 17.8715 57.7208 17.5746C56.9865 17.2621 56.3458 16.8324 55.799 16.2855C55.2521 15.7386 54.8224 15.098 54.5099 14.3636C54.213 13.6136 54.0646 12.7933 54.0646 11.9027C54.0646 11.0746 54.213 10.2933 54.5099 9.55896C54.8068 8.80896 55.2208 8.16052 55.7521 7.61365C56.2833 7.05115 56.9083 6.60584 57.6271 6.27771C58.3615 5.94959 59.1661 5.78552 60.0411 5.78552C60.963 5.78552 61.7833 5.94177 62.5021 6.25427C63.2208 6.55115 63.8224 6.97302 64.3068 7.5199C64.7911 8.05115 65.1583 8.68396 65.4083 9.41834C65.6583 10.1527 65.7833 10.9496 65.7833 11.809C65.7833 11.9183 65.7833 12.0121 65.7833 12.0902C65.7677 12.184 65.7599 12.2699 65.7599 12.348C65.7443 12.4261 65.7365 12.5121 65.7365 12.6058H57.088C57.1505 13.0746 57.2755 13.4808 57.463 13.8246C57.6661 14.1527 57.9083 14.434 58.1896 14.6683C58.4865 14.8871 58.8068 15.0511 59.1505 15.1605C59.4943 15.2543 59.8458 15.3011 60.2052 15.3011C60.9083 15.3011 61.4865 15.1449 61.9396 14.8324C62.4083 14.5043 62.7755 14.098 63.0411 13.6136L65.5958 14.8793ZM62.8068 10.4261C62.7911 10.223 62.7208 9.99646 62.5958 9.74646C62.4865 9.49646 62.3146 9.26209 62.0802 9.04334C61.8615 8.82459 61.5802 8.6449 61.2365 8.50427C60.9083 8.36365 60.5099 8.29333 60.0411 8.29333C59.3849 8.29333 58.8068 8.48084 58.3068 8.85584C57.8068 9.23084 57.4552 9.75427 57.2521 10.4261H62.8068Z" fill="white"/>
<path d="M46.5892 6.16052H49.472V7.75427H49.6595C49.8002 7.47302 49.9877 7.21521 50.222 6.98083C50.4564 6.74646 50.7142 6.54333 50.9955 6.37146C51.2924 6.19958 51.6049 6.06677 51.933 5.97302C52.2767 5.87927 52.6127 5.8324 52.9408 5.8324C53.347 5.8324 53.6908 5.87146 53.972 5.94958C54.2689 6.02771 54.5189 6.12927 54.722 6.25427L53.9017 9.04333C53.7142 8.94958 53.5033 8.87927 53.2689 8.8324C53.0502 8.7699 52.7767 8.73865 52.4486 8.73865C52.0267 8.73865 51.6439 8.82458 51.3002 8.99646C50.9564 9.15271 50.6595 9.37927 50.4095 9.67615C50.1752 9.97302 49.9877 10.3246 49.847 10.7308C49.722 11.1215 49.6595 11.5511 49.6595 12.0199V17.6449H46.5892V6.16052Z" fill="white"/>
<path d="M41.7793 16.1449H41.5918C41.2324 16.723 40.748 17.184 40.1387 17.5277C39.5293 17.8558 38.834 18.0199 38.0527 18.0199C36.5996 18.0199 35.5137 17.5746 34.7949 16.684C34.0918 15.7933 33.7402 14.6058 33.7402 13.1215V6.16052H36.8105V12.7465C36.8105 13.5746 36.9902 14.1918 37.3496 14.598C37.7246 14.9886 38.2637 15.184 38.9668 15.184C39.3887 15.184 39.7559 15.098 40.0684 14.9261C40.3965 14.7386 40.6699 14.4965 40.8887 14.1996C41.123 13.8871 41.2949 13.5277 41.4043 13.1215C41.5293 12.6996 41.5918 12.2543 41.5918 11.7855V6.16052H44.6621V17.6449H41.7793V16.1449Z" fill="white"/>
<path d="M26.3958 8.78552H24.3801V6.16052H26.3958V2.6449H29.4661V6.16052H32.2786V8.78552H29.4661V13.2387C29.4661 13.5043 29.4895 13.7543 29.5364 13.9886C29.5989 14.2074 29.7083 14.3949 29.8645 14.5512C30.0833 14.8012 30.3958 14.9262 30.802 14.9262C31.0676 14.9262 31.2786 14.9027 31.4348 14.8558C31.5911 14.7933 31.7395 14.7152 31.8801 14.6215L32.7473 17.3168C32.3879 17.4887 31.9973 17.6137 31.5754 17.6918C31.1692 17.7855 30.7161 17.8324 30.2161 17.8324C29.6379 17.8324 29.1145 17.7465 28.6458 17.5746C28.1926 17.3871 27.8098 17.1371 27.4973 16.8246C26.7629 16.1215 26.3958 15.1215 26.3958 13.8246V8.78552Z" fill="white"/>
<path d="M20.2058 16.1449H20.0183C19.6589 16.723 19.1746 17.184 18.5652 17.5277C17.9558 17.8558 17.2605 18.0199 16.4792 18.0199C15.0261 18.0199 13.9402 17.5746 13.2214 16.684C12.5183 15.7933 12.1667 14.6058 12.1667 13.1215V6.16052H15.2371V12.7465C15.2371 13.5746 15.4167 14.1918 15.7761 14.598C16.1511 14.9886 16.6902 15.184 17.3933 15.184C17.8152 15.184 18.1824 15.098 18.4949 14.9261C18.823 14.7386 19.0964 14.4965 19.3152 14.1996C19.5496 13.8871 19.7214 13.5277 19.8308 13.1215C19.9558 12.6996 20.0183 12.2543 20.0183 11.7855V6.16052H23.0886V17.6449H20.2058V16.1449Z" fill="white"/>
<path d="M0.727295 0.863647H11.3679V3.86365H3.89136V7.94177H10.6179V10.9418H3.89136V17.6449H0.727295V0.863647Z" fill="white"/>
</svg>
