<svg width="114" height="19" viewBox="0 0 114 19" fill="none" xmlns="http://www.w3.org/2000/svg">
<path d="M102.629 0.863647H105.699V5.57458L105.512 7.66052H105.699C106.027 7.11365 106.496 6.66833 107.105 6.32458C107.73 5.96521 108.426 5.78552 109.191 5.78552C110.676 5.78552 111.77 6.22302 112.473 7.09802C113.191 7.97302 113.551 9.16833 113.551 10.684V17.6449H110.48V11.059C110.48 10.2621 110.293 9.66052 109.918 9.25427C109.543 8.8324 109.02 8.62146 108.348 8.62146C107.926 8.62146 107.551 8.71521 107.223 8.90271C106.895 9.07458 106.613 9.31677 106.379 9.62927C106.16 9.94177 105.988 10.309 105.863 10.7308C105.754 11.1371 105.699 11.5746 105.699 12.0433V17.6449H102.629V0.863647Z" fill="white"/>
<path d="M101.457 14.7152C100.957 15.684 100.254 16.4808 99.3477 17.1058C98.457 17.7152 97.3398 18.0199 95.9961 18.0199C95.1055 18.0199 94.2852 17.8715 93.5352 17.5746C92.8008 17.2621 92.1602 16.8324 91.6133 16.2855C91.082 15.7386 90.6602 15.098 90.3477 14.3636C90.0508 13.6136 89.9023 12.7933 89.9023 11.9027C89.9023 11.0121 90.0508 10.1918 90.3477 9.44177C90.6602 8.69177 91.082 8.05115 91.6133 7.5199C92.1602 6.97302 92.8008 6.55115 93.5352 6.25427C94.2852 5.94177 95.1055 5.78552 95.9961 5.78552C97.3242 5.78552 98.4414 6.09021 99.3477 6.69959C100.254 7.30896 100.918 8.09802 101.34 9.06677L98.5273 10.2386C98.2617 9.7074 97.918 9.30896 97.4961 9.04334C97.0898 8.76209 96.5742 8.62146 95.9492 8.62146C95.543 8.62146 95.1602 8.69959 94.8008 8.85584C94.4414 9.01209 94.1211 9.23084 93.8398 9.51209C93.5742 9.79334 93.3633 10.1371 93.207 10.5433C93.0508 10.9496 92.9727 11.4027 92.9727 11.9027C92.9727 12.4027 93.0508 12.8558 93.207 13.2621C93.3633 13.6683 93.5742 14.0121 93.8398 14.2933C94.1211 14.5746 94.4414 14.7933 94.8008 14.9496C95.1602 15.1058 95.543 15.184 95.9492 15.184C96.5898 15.184 97.1289 15.0433 97.5664 14.7621C98.0195 14.4652 98.3789 14.0433 98.6445 13.4965L101.457 14.7152Z" fill="white"/>
<path d="M89 14.8793C88.4688 15.8168 87.75 16.5746 86.8438 17.1527C85.9531 17.7308 84.8594 18.0199 83.5625 18.0199C82.6875 18.0199 81.875 17.8715 81.125 17.5746C80.3906 17.2621 79.75 16.8324 79.2031 16.2855C78.6563 15.7386 78.2266 15.098 77.9141 14.3636C77.6172 13.6136 77.4688 12.7933 77.4688 11.9027C77.4688 11.0746 77.6172 10.2933 77.9141 9.55896C78.2109 8.80896 78.625 8.16052 79.1563 7.61365C79.6875 7.05115 80.3125 6.60584 81.0313 6.27771C81.7656 5.94959 82.5703 5.78552 83.4453 5.78552C84.3672 5.78552 85.1875 5.94177 85.9063 6.25427C86.625 6.55115 87.2266 6.97302 87.7109 7.5199C88.1953 8.05115 88.5625 8.68396 88.8125 9.41834C89.0625 10.1527 89.1875 10.9496 89.1875 11.809C89.1875 11.9183 89.1875 12.0121 89.1875 12.0902C89.1719 12.184 89.1641 12.2699 89.1641 12.348C89.1484 12.4261 89.1406 12.5121 89.1406 12.6058H80.4922C80.5547 13.0746 80.6797 13.4808 80.8672 13.8246C81.0703 14.1527 81.3125 14.434 81.5938 14.6683C81.8906 14.8871 82.2109 15.0511 82.5547 15.1605C82.8984 15.2543 83.25 15.3011 83.6094 15.3011C84.3125 15.3011 84.8906 15.1449 85.3438 14.8324C85.8125 14.5043 86.1797 14.098 86.4453 13.6136L89 14.8793ZM86.2109 10.4261C86.1953 10.223 86.125 9.99646 86 9.74646C85.8906 9.49646 85.7188 9.26209 85.4844 9.04334C85.2656 8.82459 84.9844 8.6449 84.6406 8.50427C84.3125 8.36365 83.9141 8.29333 83.4453 8.29333C82.7891 8.29333 82.2109 8.48084 81.7109 8.85584C81.2109 9.23084 80.8594 9.75427 80.6563 10.4261H86.2109Z" fill="white"/>
<path d="M70.9766 17.6449V3.86365H66.2891V0.863647H78.8281V3.86365H74.1406V17.6449H70.9766Z" fill="white"/>
<path d="M65.5938 14.8793C65.0625 15.8168 64.3438 16.5746 63.4375 17.1527C62.5469 17.7308 61.4531 18.0199 60.1563 18.0199C59.2813 18.0199 58.4688 17.8715 57.7188 17.5746C56.9844 17.2621 56.3438 16.8324 55.7969 16.2855C55.25 15.7386 54.8203 15.098 54.5078 14.3636C54.2109 13.6136 54.0625 12.7933 54.0625 11.9027C54.0625 11.0746 54.2109 10.2933 54.5078 9.55896C54.8047 8.80896 55.2188 8.16052 55.75 7.61365C56.2813 7.05115 56.9063 6.60584 57.625 6.27771C58.3594 5.94959 59.1641 5.78552 60.0391 5.78552C60.9609 5.78552 61.7813 5.94177 62.5 6.25427C63.2188 6.55115 63.8203 6.97302 64.3047 7.5199C64.7891 8.05115 65.1563 8.68396 65.4063 9.41834C65.6563 10.1527 65.7812 10.9496 65.7812 11.809C65.7812 11.9183 65.7812 12.0121 65.7812 12.0902C65.7656 12.184 65.7578 12.2699 65.7578 12.348C65.7422 12.4261 65.7344 12.5121 65.7344 12.6058H57.0859C57.1484 13.0746 57.2734 13.4808 57.4609 13.8246C57.6641 14.1527 57.9063 14.434 58.1875 14.6683C58.4844 14.8871 58.8047 15.0511 59.1484 15.1605C59.4922 15.2543 59.8438 15.3011 60.2031 15.3011C60.9063 15.3011 61.4844 15.1449 61.9375 14.8324C62.4063 14.5043 62.7734 14.098 63.0391 13.6136L65.5938 14.8793ZM62.8047 10.4261C62.7891 10.223 62.7188 9.99646 62.5938 9.74646C62.4844 9.49646 62.3125 9.26209 62.0781 9.04334C61.8594 8.82459 61.5781 8.6449 61.2344 8.50427C60.9063 8.36365 60.5078 8.29333 60.0391 8.29333C59.3828 8.29333 58.8047 8.48084 58.3047 8.85584C57.8047 9.23084 57.4531 9.75427 57.25 10.4261H62.8047Z" fill="white"/>
<path d="M46.5898 6.16052H49.4727V7.75427H49.6602C49.8008 7.47302 49.9883 7.21521 50.2227 6.98083C50.457 6.74646 50.7148 6.54333 50.9961 6.37146C51.293 6.19958 51.6055 6.06677 51.9336 5.97302C52.2773 5.87927 52.6133 5.8324 52.9414 5.8324C53.3477 5.8324 53.6914 5.87146 53.9727 5.94958C54.2695 6.02771 54.5195 6.12927 54.7227 6.25427L53.9023 9.04333C53.7148 8.94958 53.5039 8.87927 53.2695 8.8324C53.0508 8.7699 52.7773 8.73865 52.4492 8.73865C52.0273 8.73865 51.6445 8.82458 51.3008 8.99646C50.957 9.15271 50.6602 9.37927 50.4102 9.67615C50.1758 9.97302 49.9883 10.3246 49.8477 10.7308C49.7227 11.1215 49.6602 11.5511 49.6602 12.0199V17.6449H46.5898V6.16052Z" fill="white"/>
<path d="M41.7773 16.1449H41.5898C41.2305 16.723 40.7461 17.184 40.1367 17.5277C39.5273 17.8558 38.832 18.0199 38.0508 18.0199C36.5977 18.0199 35.5117 17.5746 34.793 16.684C34.0898 15.7933 33.7383 14.6058 33.7383 13.1215V6.16052H36.8086V12.7465C36.8086 13.5746 36.9883 14.1918 37.3477 14.598C37.7227 14.9886 38.2617 15.184 38.9648 15.184C39.3867 15.184 39.7539 15.098 40.0664 14.9261C40.3945 14.7386 40.668 14.4965 40.8867 14.1996C41.1211 13.8871 41.293 13.5277 41.4023 13.1215C41.5273 12.6996 41.5898 12.2543 41.5898 11.7855V6.16052H44.6602V17.6449H41.7773V16.1449Z" fill="white"/>
<path d="M26.3945 8.78552H24.3789V6.16052H26.3945V2.6449H29.4648V6.16052H32.2773V8.78552H29.4648V13.2387C29.4648 13.5043 29.4883 13.7543 29.5352 13.9886C29.5977 14.2074 29.707 14.3949 29.8633 14.5512C30.082 14.8012 30.3945 14.9262 30.8008 14.9262C31.0664 14.9262 31.2773 14.9027 31.4336 14.8558C31.5898 14.7933 31.7383 14.7152 31.8789 14.6215L32.7461 17.3168C32.3867 17.4887 31.9961 17.6137 31.5742 17.6918C31.168 17.7855 30.7148 17.8324 30.2148 17.8324C29.6367 17.8324 29.1133 17.7465 28.6445 17.5746C28.1914 17.3871 27.8086 17.1371 27.4961 16.8246C26.7617 16.1215 26.3945 15.1215 26.3945 13.8246V8.78552Z" fill="white"/>
<path d="M20.207 16.1449H20.0195C19.6602 16.723 19.1758 17.184 18.5664 17.5277C17.957 17.8558 17.2617 18.0199 16.4805 18.0199C15.0273 18.0199 13.9414 17.5746 13.2227 16.684C12.5195 15.7933 12.168 14.6058 12.168 13.1215V6.16052H15.2383V12.7465C15.2383 13.5746 15.418 14.1918 15.7773 14.598C16.1523 14.9886 16.6914 15.184 17.3945 15.184C17.8164 15.184 18.1836 15.098 18.4961 14.9261C18.8242 14.7386 19.0977 14.4965 19.3164 14.1996C19.5508 13.8871 19.7227 13.5277 19.832 13.1215C19.957 12.6996 20.0195 12.2543 20.0195 11.7855V6.16052H23.0898V17.6449H20.207V16.1449Z" fill="white"/>
<path d="M0.726562 0.863647H11.3672V3.86365H3.89063V7.94177H10.6172V10.9418H3.89063V17.6449H0.726562V0.863647Z" fill="white"/>
</svg>
