<svg width="21" height="21" viewBox="0 0 21 21" fill="none" xmlns="http://www.w3.org/2000/svg">
<path fill-rule="evenodd" clip-rule="evenodd" d="M7.67578 3.625L17.0508 3.625C17.2165 3.625 17.3755 3.69085 17.4927 3.80806C17.6099 3.92527 17.6758 4.08424 17.6758 4.25V13.625C17.6758 13.9702 17.396 14.25 17.0508 14.25C16.7056 14.25 16.4258 13.9702 16.4258 13.625V5.75888L4.99272 17.1919C4.74865 17.436 4.35292 17.436 4.10884 17.1919C3.86476 16.9479 3.86476 16.5521 4.10884 16.3081L15.5419 4.875L7.67578 4.875C7.3306 4.875 7.05078 4.59518 7.05078 4.25C7.05078 3.90482 7.3306 3.625 7.67578 3.625Z" fill="#FFD11A"/>
</svg>
