<svg width="24" height="24" viewBox="0 0 24 24" fill="none" xmlns="http://www.w3.org/2000/svg">
<path d="M13.5374 12.2276C13.5374 15.9983 10.5069 19.0551 6.76883 19.0551C3.03073 19.0551 0 15.9976 0 12.2276C0 8.45758 3.0305 5.3999 6.76883 5.3999C10.5072 5.3999 13.5374 8.45688 13.5374 12.2276Z" fill="white"/>
<path d="M20.9642 12.2276C20.9642 15.7769 19.4489 18.6553 17.5797 18.6553C15.7106 18.6553 14.1953 15.7769 14.1953 12.2276C14.1953 8.67824 15.7103 5.7998 17.5795 5.7998C19.4487 5.7998 20.9639 8.67732 20.9639 12.2276" fill="white"/>
<path d="M24.0015 12.2275C24.0015 15.4068 23.4686 17.9857 22.8112 17.9857C22.1537 17.9857 21.6211 15.4075 21.6211 12.2275C21.6211 9.04748 22.1539 6.46924 22.8112 6.46924C23.4684 6.46924 24.0015 9.04725 24.0015 12.2275Z" fill="white"/>
</svg>
