<svg width="179" height="51" viewBox="0 0 179 51" fill="none" xmlns="http://www.w3.org/2000/svg">
<path d="M164.629 16.8636H167.699V21.5746L167.512 23.6605H167.699C168.027 23.1136 168.496 22.6683 169.105 22.3246C169.73 21.9652 170.426 21.7855 171.191 21.7855C172.676 21.7855 173.77 22.223 174.473 23.098C175.191 23.973 175.551 25.1683 175.551 26.684V33.6449H172.48V27.059C172.48 26.2621 172.293 25.6605 171.918 25.2543C171.543 24.8324 171.02 24.6215 170.348 24.6215C169.926 24.6215 169.551 24.7152 169.223 24.9027C168.895 25.0746 168.613 25.3168 168.379 25.6293C168.16 25.9418 167.988 26.309 167.863 26.7308C167.754 27.1371 167.699 27.5746 167.699 28.0433V33.6449H164.629V16.8636Z" fill="white"/>
<path d="M163.457 30.7152C162.957 31.684 162.254 32.4808 161.348 33.1058C160.457 33.7152 159.34 34.0199 157.996 34.0199C157.105 34.0199 156.285 33.8715 155.535 33.5746C154.801 33.2621 154.16 32.8324 153.613 32.2855C153.082 31.7386 152.66 31.098 152.348 30.3636C152.051 29.6136 151.902 28.7933 151.902 27.9027C151.902 27.0121 152.051 26.1918 152.348 25.4418C152.66 24.6918 153.082 24.0511 153.613 23.5199C154.16 22.973 154.801 22.5511 155.535 22.2543C156.285 21.9418 157.105 21.7855 157.996 21.7855C159.324 21.7855 160.441 22.0902 161.348 22.6996C162.254 23.309 162.918 24.098 163.34 25.0668L160.527 26.2386C160.262 25.7074 159.918 25.309 159.496 25.0433C159.09 24.7621 158.574 24.6215 157.949 24.6215C157.543 24.6215 157.16 24.6996 156.801 24.8558C156.441 25.0121 156.121 25.2308 155.84 25.5121C155.574 25.7933 155.363 26.1371 155.207 26.5433C155.051 26.9496 154.973 27.4027 154.973 27.9027C154.973 28.4027 155.051 28.8558 155.207 29.2621C155.363 29.6683 155.574 30.0121 155.84 30.2933C156.121 30.5746 156.441 30.7933 156.801 30.9496C157.16 31.1058 157.543 31.184 157.949 31.184C158.59 31.184 159.129 31.0433 159.566 30.7621C160.02 30.4652 160.379 30.0433 160.645 29.4965L163.457 30.7152Z" fill="white"/>
<path d="M151 30.8793C150.469 31.8168 149.75 32.5746 148.844 33.1527C147.953 33.7308 146.859 34.0199 145.563 34.0199C144.688 34.0199 143.875 33.8715 143.125 33.5746C142.391 33.2621 141.75 32.8324 141.203 32.2855C140.656 31.7386 140.227 31.098 139.914 30.3636C139.617 29.6136 139.469 28.7933 139.469 27.9027C139.469 27.0746 139.617 26.2933 139.914 25.559C140.211 24.809 140.625 24.1605 141.156 23.6136C141.688 23.0511 142.313 22.6058 143.031 22.2777C143.766 21.9496 144.57 21.7855 145.445 21.7855C146.367 21.7855 147.188 21.9418 147.906 22.2543C148.625 22.5511 149.227 22.973 149.711 23.5199C150.195 24.0511 150.563 24.684 150.813 25.4183C151.063 26.1527 151.188 26.9496 151.188 27.809C151.188 27.9183 151.188 28.0121 151.188 28.0902C151.172 28.184 151.164 28.2699 151.164 28.348C151.148 28.4261 151.141 28.5121 151.141 28.6058H142.492C142.555 29.0746 142.68 29.4808 142.867 29.8246C143.07 30.1527 143.313 30.434 143.594 30.6683C143.891 30.8871 144.211 31.0511 144.555 31.1605C144.898 31.2543 145.25 31.3011 145.609 31.3011C146.313 31.3011 146.891 31.1449 147.344 30.8324C147.813 30.5043 148.18 30.098 148.445 29.6136L151 30.8793ZM148.211 26.4261C148.195 26.223 148.125 25.9965 148 25.7465C147.891 25.4965 147.719 25.2621 147.484 25.0433C147.266 24.8246 146.984 24.6449 146.641 24.5043C146.313 24.3636 145.914 24.2933 145.445 24.2933C144.789 24.2933 144.211 24.4808 143.711 24.8558C143.211 25.2308 142.859 25.7543 142.656 26.4261H148.211Z" fill="white"/>
<path d="M132.977 33.6449V19.8636H128.289V16.8636H140.828V19.8636H136.141V33.6449H132.977Z" fill="white"/>
<path d="M127.594 30.8793C127.063 31.8168 126.344 32.5746 125.438 33.1527C124.547 33.7308 123.453 34.0199 122.156 34.0199C121.281 34.0199 120.469 33.8715 119.719 33.5746C118.984 33.2621 118.344 32.8324 117.797 32.2855C117.25 31.7386 116.82 31.098 116.508 30.3636C116.211 29.6136 116.062 28.7933 116.062 27.9027C116.062 27.0746 116.211 26.2933 116.508 25.559C116.805 24.809 117.219 24.1605 117.75 23.6136C118.281 23.0511 118.906 22.6058 119.625 22.2777C120.359 21.9496 121.164 21.7855 122.039 21.7855C122.961 21.7855 123.781 21.9418 124.5 22.2543C125.219 22.5511 125.82 22.973 126.305 23.5199C126.789 24.0511 127.156 24.684 127.406 25.4183C127.656 26.1527 127.781 26.9496 127.781 27.809C127.781 27.9183 127.781 28.0121 127.781 28.0902C127.766 28.184 127.758 28.2699 127.758 28.348C127.742 28.4261 127.734 28.5121 127.734 28.6058H119.086C119.148 29.0746 119.273 29.4808 119.461 29.8246C119.664 30.1527 119.906 30.434 120.188 30.6683C120.484 30.8871 120.805 31.0511 121.148 31.1605C121.492 31.2543 121.844 31.3011 122.203 31.3011C122.906 31.3011 123.484 31.1449 123.938 30.8324C124.406 30.5043 124.773 30.098 125.039 29.6136L127.594 30.8793ZM124.805 26.4261C124.789 26.223 124.719 25.9965 124.594 25.7465C124.484 25.4965 124.313 25.2621 124.078 25.0433C123.859 24.8246 123.578 24.6449 123.234 24.5043C122.906 24.3636 122.508 24.2933 122.039 24.2933C121.383 24.2933 120.805 24.4808 120.305 24.8558C119.805 25.2308 119.453 25.7543 119.25 26.4261H124.805Z" fill="white"/>
<path d="M108.59 22.1605H111.473V23.7543H111.66C111.801 23.473 111.988 23.2152 112.223 22.9808C112.457 22.7465 112.715 22.5433 112.996 22.3715C113.293 22.1996 113.605 22.0668 113.934 21.973C114.277 21.8793 114.613 21.8324 114.941 21.8324C115.348 21.8324 115.691 21.8715 115.973 21.9496C116.27 22.0277 116.52 22.1293 116.723 22.2543L115.902 25.0433C115.715 24.9496 115.504 24.8793 115.27 24.8324C115.051 24.7699 114.777 24.7386 114.449 24.7386C114.027 24.7386 113.645 24.8246 113.301 24.9965C112.957 25.1527 112.66 25.3793 112.41 25.6761C112.176 25.973 111.988 26.3246 111.848 26.7308C111.723 27.1215 111.66 27.5511 111.66 28.0199V33.6449H108.59V22.1605Z" fill="white"/>
<path d="M103.777 32.1449H103.59C103.23 32.723 102.746 33.184 102.137 33.5277C101.527 33.8558 100.832 34.0199 100.051 34.0199C98.5977 34.0199 97.5117 33.5746 96.793 32.684C96.0898 31.7933 95.7383 30.6058 95.7383 29.1215V22.1605H98.8086V28.7465C98.8086 29.5746 98.9883 30.1918 99.3477 30.598C99.7227 30.9886 100.262 31.184 100.965 31.184C101.387 31.184 101.754 31.098 102.066 30.9261C102.395 30.7386 102.668 30.4965 102.887 30.1996C103.121 29.8871 103.293 29.5277 103.402 29.1215C103.527 28.6996 103.59 28.2543 103.59 27.7855V22.1605H106.66V33.6449H103.777V32.1449Z" fill="white"/>
<path d="M88.3945 24.7855H86.3789V22.1605H88.3945V18.6449H91.4648V22.1605H94.2773V24.7855H91.4648V29.2387C91.4648 29.5043 91.4883 29.7543 91.5352 29.9886C91.5977 30.2074 91.707 30.3949 91.8633 30.5512C92.082 30.8012 92.3945 30.9262 92.8008 30.9262C93.0664 30.9262 93.2773 30.9027 93.4336 30.8558C93.5898 30.7933 93.7383 30.7152 93.8789 30.6215L94.7461 33.3168C94.3867 33.4887 93.9961 33.6137 93.5742 33.6918C93.168 33.7855 92.7148 33.8324 92.2148 33.8324C91.6367 33.8324 91.1133 33.7465 90.6445 33.5746C90.1914 33.3871 89.8086 33.1371 89.4961 32.8246C88.7617 32.1215 88.3945 31.1215 88.3945 29.8246V24.7855Z" fill="white"/>
<path d="M82.207 32.1449H82.0195C81.6602 32.723 81.1758 33.184 80.5664 33.5277C79.957 33.8558 79.2617 34.0199 78.4805 34.0199C77.0273 34.0199 75.9414 33.5746 75.2227 32.684C74.5195 31.7933 74.168 30.6058 74.168 29.1215V22.1605H77.2383V28.7465C77.2383 29.5746 77.418 30.1918 77.7773 30.598C78.1523 30.9886 78.6914 31.184 79.3945 31.184C79.8164 31.184 80.1836 31.098 80.4961 30.9261C80.8242 30.7386 81.0977 30.4965 81.3164 30.1996C81.5508 29.8871 81.7227 29.5277 81.832 29.1215C81.957 28.6996 82.0195 28.2543 82.0195 27.7855V22.1605H85.0898V33.6449H82.207V32.1449Z" fill="white"/>
<path d="M62.7266 16.8636H73.3672V19.8636H65.8906V23.9418H72.6172V26.9418H65.8906V33.6449H62.7266V16.8636Z" fill="white"/>
<path d="M33.3359 50.5V42.1666C37.947 42.1666 41.6693 38.4444 41.6693 33.8333H50.0026C50.0026 43.0555 42.5304 50.5 33.3359 50.5Z" fill="#FFD11A"/>
<path d="M33.3346 50.5V42.1666C28.7235 42.1666 25.0013 38.4444 25.0013 33.8333H16.668C16.668 43.0555 24.1402 50.5 33.3346 50.5Z" fill="#FFD11A"/>
<path d="M0 33.8334H8.33333C8.33333 38.4445 12.0556 42.1667 16.6667 42.1667V50.5C7.47222 50.5 0 43.0556 0 33.8334Z" fill="#FFD11A"/>
<path d="M0 33.8334H8.33333C8.33333 29.2222 12.0556 25.5 16.6667 25.5V17.1667C7.47222 17.1667 0 24.6389 0 33.8334Z" fill="#FFD11A"/>
<path d="M16.6667 0.5V8.83333C12.0556 8.83333 8.33333 12.5556 8.33333 17.1667H0C0 7.97222 7.47222 0.5 16.6667 0.5Z" fill="#FFD11A"/>
<path d="M16.668 0.5V8.83333C21.2791 8.83333 25.0013 12.5556 25.0013 17.1667H33.3346C33.3346 7.97222 25.8624 0.5 16.668 0.5Z" fill="#FFD11A"/>
<path d="M49.9987 17.1667H41.6654C41.6654 12.5556 37.9431 8.83333 33.332 8.83333V0.5C42.5265 0.5 49.9987 7.97222 49.9987 17.1667Z" fill="#FFD11A"/>
<path d="M49.9987 17.1667H41.6654C41.6654 21.7778 37.9431 25.5 33.332 25.5V33.8334C42.5265 33.8334 49.9987 26.3889 49.9987 17.1667Z" fill="#FFD11A"/>
</svg>
