<svg width="160" height="32" viewBox="0 0 160 32" fill="none" xmlns="http://www.w3.org/2000/svg">
<rect width="160" height="32" rx="4" fill="#333333"/>
<path d="M13.0455 22H9.27841V10.3636H13.1648C14.3049 10.3636 15.2841 10.5966 16.1023 11.0625C16.9205 11.5246 17.5473 12.1894 17.983 13.0568C18.4223 13.9205 18.642 14.9564 18.642 16.1648C18.642 17.3769 18.4205 18.4186 17.9773 19.2898C17.5379 20.161 16.9015 20.8314 16.0682 21.3011C15.2348 21.767 14.2273 22 13.0455 22ZM11.0341 20.4659H12.9489C13.8352 20.4659 14.572 20.2992 15.1591 19.9659C15.7462 19.6288 16.1856 19.142 16.4773 18.5057C16.7689 17.8655 16.9148 17.0852 16.9148 16.1648C16.9148 15.2519 16.7689 14.4773 16.4773 13.8409C16.1894 13.2045 15.7595 12.7216 15.1875 12.392C14.6155 12.0625 13.9053 11.8977 13.0568 11.8977H11.0341V20.4659ZM20.2089 22V13.2727H21.9078V22H20.2089ZM21.0669 11.9261C20.7714 11.9261 20.5176 11.8277 20.3055 11.6307C20.0972 11.4299 19.993 11.1913 19.993 10.9148C19.993 10.6345 20.0972 10.3958 20.3055 10.1989C20.5176 9.99811 20.7714 9.89773 21.0669 9.89773C21.3623 9.89773 21.6142 9.99811 21.8226 10.1989C22.0347 10.3958 22.1407 10.6345 22.1407 10.9148C22.1407 11.1913 22.0347 11.4299 21.8226 11.6307C21.6142 11.8277 21.3623 11.9261 21.0669 11.9261ZM31.1792 13.2727L28.0144 22H26.1962L23.0258 13.2727H24.8497L27.0599 19.9886H27.1508L29.3553 13.2727H31.1792ZM35.7603 22.1761C34.9004 22.1761 34.1599 21.9924 33.5387 21.625C32.9213 21.2538 32.444 20.733 32.1069 20.0625C31.7735 19.3883 31.6069 18.5985 31.6069 17.6932C31.6069 16.7992 31.7735 16.0114 32.1069 15.3295C32.444 14.6477 32.9137 14.1155 33.516 13.733C34.122 13.3504 34.8304 13.1591 35.641 13.1591C36.1334 13.1591 36.6107 13.2405 37.0728 13.4034C37.5349 13.5663 37.9497 13.822 38.3171 14.1705C38.6845 14.5189 38.9743 14.9716 39.1864 15.5284C39.3985 16.0814 39.5046 16.7538 39.5046 17.5455V18.1477H32.5671V16.875H37.8398C37.8398 16.428 37.7489 16.0322 37.5671 15.6875C37.3853 15.339 37.1296 15.0644 36.8001 14.8636C36.4743 14.6629 36.0917 14.5625 35.6523 14.5625C35.1751 14.5625 34.7584 14.6799 34.4023 14.9148C34.0501 15.1458 33.7773 15.4489 33.5841 15.8239C33.3948 16.1951 33.3001 16.5985 33.3001 17.0341V18.0284C33.3001 18.6117 33.4023 19.108 33.6069 19.517C33.8152 19.9261 34.105 20.2386 34.4762 20.4545C34.8474 20.6667 35.2811 20.7727 35.7773 20.7727C36.0993 20.7727 36.3929 20.7273 36.658 20.6364C36.9232 20.5417 37.1523 20.4015 37.3455 20.2159C37.5387 20.0303 37.6864 19.8011 37.7887 19.5284L39.3966 19.8182C39.2679 20.2917 39.0368 20.7064 38.7035 21.0625C38.3739 21.4148 37.9591 21.6894 37.4591 21.8864C36.9629 22.0795 36.3966 22.1761 35.7603 22.1761ZM44.6639 22V13.2727H46.3628V22H44.6639ZM45.5219 11.9261C45.2264 11.9261 44.9726 11.8277 44.7605 11.6307C44.5522 11.4299 44.448 11.1913 44.448 10.9148C44.448 10.6345 44.5522 10.3958 44.7605 10.1989C44.9726 9.99811 45.2264 9.89773 45.5219 9.89773C45.8173 9.89773 46.0692 9.99811 46.2776 10.1989C46.4897 10.3958 46.5957 10.6345 46.5957 10.9148C46.5957 11.1913 46.4897 11.4299 46.2776 11.6307C46.0692 11.8277 45.8173 11.9261 45.5219 11.9261ZM49.8672 16.8182V22H48.1683V13.2727H49.799V14.6932H49.9069C50.1077 14.2311 50.4221 13.8598 50.8501 13.5795C51.2819 13.2992 51.8255 13.1591 52.4808 13.1591C53.0755 13.1591 53.5963 13.2841 54.0433 13.5341C54.4903 13.7803 54.8369 14.1477 55.0831 14.6364C55.3293 15.125 55.4524 15.7292 55.4524 16.4489V22H53.7535V16.6534C53.7535 16.0208 53.5887 15.5265 53.2592 15.1705C52.9297 14.8106 52.477 14.6307 51.9012 14.6307C51.5073 14.6307 51.1569 14.7159 50.8501 14.8864C50.5471 15.0568 50.3066 15.3068 50.1285 15.6364C49.9543 15.9621 49.8672 16.3561 49.8672 16.8182ZM61.3247 13.2727V14.6364H56.5576V13.2727H61.3247ZM57.836 11.1818H59.5349V19.4375C59.5349 19.767 59.5841 20.0152 59.6826 20.1818C59.7811 20.3447 59.908 20.4564 60.0633 20.517C60.2224 20.5739 60.3947 20.6023 60.5803 20.6023C60.7167 20.6023 60.836 20.5928 60.9383 20.5739C61.0406 20.5549 61.1201 20.5398 61.1769 20.5284L61.4837 21.9318C61.3853 21.9697 61.2451 22.0076 61.0633 22.0455C60.8815 22.0871 60.6542 22.1098 60.3815 22.1136C59.9345 22.1212 59.5178 22.0417 59.1315 21.875C58.7451 21.7083 58.4326 21.4508 58.194 21.1023C57.9553 20.7538 57.836 20.3163 57.836 19.7898V11.1818ZM66.3063 22.1761C65.4881 22.1761 64.7741 21.9886 64.1643 21.6136C63.5544 21.2386 63.0809 20.714 62.7438 20.0398C62.4067 19.3655 62.2381 18.5777 62.2381 17.6761C62.2381 16.7708 62.4067 15.9792 62.7438 15.3011C63.0809 14.6231 63.5544 14.0966 64.1643 13.7216C64.7741 13.3466 65.4881 13.1591 66.3063 13.1591C67.1245 13.1591 67.8385 13.3466 68.4484 13.7216C69.0582 14.0966 69.5317 14.6231 69.8688 15.3011C70.2059 15.9792 70.3745 16.7708 70.3745 17.6761C70.3745 18.5777 70.2059 19.3655 69.8688 20.0398C69.5317 20.714 69.0582 21.2386 68.4484 21.6136C67.8385 21.9886 67.1245 22.1761 66.3063 22.1761ZM66.312 20.75C66.8423 20.75 67.2817 20.6098 67.6302 20.3295C67.9787 20.0492 68.2362 19.6761 68.4029 19.2102C68.5734 18.7443 68.6586 18.2311 68.6586 17.6705C68.6586 17.1136 68.5734 16.6023 68.4029 16.1364C68.2362 15.6667 67.9787 15.2898 67.6302 15.0057C67.2817 14.7216 66.8423 14.5795 66.312 14.5795C65.7779 14.5795 65.3347 14.7216 64.9824 15.0057C64.634 15.2898 64.3745 15.6667 64.204 16.1364C64.0374 16.6023 63.954 17.1136 63.954 17.6705C63.954 18.2311 64.0374 18.7443 64.204 19.2102C64.3745 19.6761 64.634 20.0492 64.9824 20.3295C65.3347 20.6098 65.7779 20.75 66.312 20.75ZM79.619 13.2727V14.6364H74.852V13.2727H79.619ZM76.1304 11.1818H77.8293V19.4375C77.8293 19.767 77.8785 20.0152 77.977 20.1818C78.0755 20.3447 78.2024 20.4564 78.3577 20.517C78.5168 20.5739 78.6891 20.6023 78.8747 20.6023C79.0111 20.6023 79.1304 20.5928 79.2327 20.5739C79.3349 20.5549 79.4145 20.5398 79.4713 20.5284L79.7781 21.9318C79.6796 21.9697 79.5395 22.0076 79.3577 22.0455C79.1758 22.0871 78.9486 22.1098 78.6758 22.1136C78.2289 22.1212 77.8122 22.0417 77.4258 21.875C77.0395 21.7083 76.727 21.4508 76.4883 21.1023C76.2497 20.7538 76.1304 20.3163 76.1304 19.7898V11.1818ZM82.9047 16.8182V22H81.2058V10.3636H82.8819V14.6932H82.9899C83.1944 14.2235 83.5069 13.8504 83.9274 13.5739C84.3478 13.2973 84.8971 13.1591 85.5751 13.1591C86.1736 13.1591 86.6963 13.2822 87.1433 13.5284C87.5941 13.7746 87.9425 14.142 88.1888 14.6307C88.4388 15.1155 88.5638 15.7216 88.5638 16.4489V22H86.8649V16.6534C86.8649 16.0133 86.7001 15.517 86.3706 15.1648C86.041 14.8087 85.5827 14.6307 84.9956 14.6307C84.5941 14.6307 84.2342 14.7159 83.916 14.8864C83.6016 15.0568 83.3535 15.3068 83.1717 15.6364C82.9937 15.9621 82.9047 16.3561 82.9047 16.8182ZM94.1122 22.1761C93.2523 22.1761 92.5118 21.9924 91.8906 21.625C91.2731 21.2538 90.7959 20.733 90.4587 20.0625C90.1254 19.3883 89.9587 18.5985 89.9587 17.6932C89.9587 16.7992 90.1254 16.0114 90.4587 15.3295C90.7959 14.6477 91.2656 14.1155 91.8678 13.733C92.4739 13.3504 93.1822 13.1591 93.9928 13.1591C94.4853 13.1591 94.9625 13.2405 95.4247 13.4034C95.8868 13.5663 96.3016 13.822 96.669 14.1705C97.0364 14.5189 97.3262 14.9716 97.5383 15.5284C97.7504 16.0814 97.8565 16.7538 97.8565 17.5455V18.1477H90.919V16.875H96.1917C96.1917 16.428 96.1008 16.0322 95.919 15.6875C95.7372 15.339 95.4815 15.0644 95.1519 14.8636C94.8262 14.6629 94.4436 14.5625 94.0042 14.5625C93.5269 14.5625 93.1103 14.6799 92.7542 14.9148C92.4019 15.1458 92.1292 15.4489 91.936 15.8239C91.7466 16.1951 91.6519 16.5985 91.6519 17.0341V18.0284C91.6519 18.6117 91.7542 19.108 91.9587 19.517C92.1671 19.9261 92.4569 20.2386 92.8281 20.4545C93.1993 20.6667 93.633 20.7727 94.1292 20.7727C94.4512 20.7727 94.7447 20.7273 95.0099 20.6364C95.275 20.5417 95.5042 20.4015 95.6974 20.2159C95.8906 20.0303 96.0383 19.8011 96.1406 19.5284L97.7485 19.8182C97.6197 20.2917 97.3887 20.7064 97.0553 21.0625C96.7258 21.4148 96.311 21.6894 95.811 21.8864C95.3148 22.0795 94.7485 22.1761 94.1122 22.1761ZM106.919 22H103.152V10.3636H107.039C108.179 10.3636 109.158 10.5966 109.976 11.0625C110.794 11.5246 111.421 12.1894 111.857 13.0568C112.296 13.9205 112.516 14.9564 112.516 16.1648C112.516 17.3769 112.294 18.4186 111.851 19.2898C111.412 20.161 110.775 20.8314 109.942 21.3011C109.109 21.767 108.101 22 106.919 22ZM104.908 20.4659H106.823C107.709 20.4659 108.446 20.2992 109.033 19.9659C109.62 19.6288 110.059 19.142 110.351 18.5057C110.643 17.8655 110.789 17.0852 110.789 16.1648C110.789 15.2519 110.643 14.4773 110.351 13.8409C110.063 13.2045 109.633 12.7216 109.061 12.392C108.489 12.0625 107.779 11.8977 106.931 11.8977H104.908V20.4659ZM117.844 22.1761C116.984 22.1761 116.244 21.9924 115.622 21.625C115.005 21.2538 114.528 20.733 114.191 20.0625C113.857 19.3883 113.691 18.5985 113.691 17.6932C113.691 16.7992 113.857 16.0114 114.191 15.3295C114.528 14.6477 114.997 14.1155 115.6 13.733C116.206 13.3504 116.914 13.1591 117.725 13.1591C118.217 13.1591 118.694 13.2405 119.157 13.4034C119.619 13.5663 120.033 13.822 120.401 14.1705C120.768 14.5189 121.058 14.9716 121.27 15.5284C121.482 16.0814 121.588 16.7538 121.588 17.5455V18.1477H114.651V16.875H119.924C119.924 16.428 119.833 16.0322 119.651 15.6875C119.469 15.339 119.213 15.0644 118.884 14.8636C118.558 14.6629 118.175 14.5625 117.736 14.5625C117.259 14.5625 116.842 14.6799 116.486 14.9148C116.134 15.1458 115.861 15.4489 115.668 15.8239C115.479 16.1951 115.384 16.5985 115.384 17.0341V18.0284C115.384 18.6117 115.486 19.108 115.691 19.517C115.899 19.9261 116.189 20.2386 116.56 20.4545C116.931 20.6667 117.365 20.7727 117.861 20.7727C118.183 20.7727 118.477 20.7273 118.742 20.6364C119.007 20.5417 119.236 20.4015 119.429 20.2159C119.622 20.0303 119.77 19.8011 119.872 19.5284L121.48 19.8182C121.352 20.2917 121.121 20.7064 120.787 21.0625C120.458 21.4148 120.043 21.6894 119.543 21.8864C119.047 22.0795 118.48 22.1761 117.844 22.1761ZM127.067 13.2727V14.6364H122.3V13.2727H127.067ZM123.579 11.1818H125.277V19.4375C125.277 19.767 125.327 20.0152 125.425 20.1818C125.524 20.3447 125.65 20.4564 125.806 20.517C125.965 20.5739 126.137 20.6023 126.323 20.6023C126.459 20.6023 126.579 20.5928 126.681 20.5739C126.783 20.5549 126.863 20.5398 126.919 20.5284L127.226 21.9318C127.128 21.9697 126.988 22.0076 126.806 22.0455C126.624 22.0871 126.397 22.1098 126.124 22.1136C125.677 22.1212 125.26 22.0417 124.874 21.875C124.488 21.7083 124.175 21.4508 123.936 21.1023C123.698 20.7538 123.579 20.3163 123.579 19.7898V11.1818ZM131.006 22.1932C130.453 22.1932 129.953 22.0909 129.506 21.8864C129.059 21.678 128.705 21.3769 128.444 20.983C128.186 20.589 128.057 20.1061 128.057 19.5341C128.057 19.0417 128.152 18.6364 128.341 18.3182C128.531 18 128.787 17.7481 129.108 17.5625C129.43 17.3769 129.79 17.2367 130.188 17.142C130.586 17.0473 130.991 16.9754 131.404 16.9261C131.927 16.8655 132.351 16.8163 132.677 16.7784C133.002 16.7367 133.239 16.6705 133.387 16.5795C133.535 16.4886 133.608 16.3409 133.608 16.1364V16.0966C133.608 15.6004 133.468 15.2159 133.188 14.9432C132.912 14.6705 132.499 14.5341 131.949 14.5341C131.377 14.5341 130.927 14.661 130.597 14.9148C130.271 15.1648 130.046 15.4432 129.921 15.75L128.324 15.3864C128.514 14.8561 128.79 14.428 129.154 14.1023C129.521 13.7727 129.944 13.5341 130.421 13.3864C130.898 13.2348 131.4 13.1591 131.927 13.1591C132.275 13.1591 132.644 13.2008 133.035 13.2841C133.429 13.3636 133.796 13.5114 134.137 13.7273C134.482 13.9432 134.764 14.2519 134.983 14.6534C135.203 15.0511 135.313 15.5682 135.313 16.2045V22H133.654V20.8068H133.586C133.476 21.0265 133.311 21.2424 133.091 21.4545C132.872 21.6667 132.59 21.8428 132.245 21.983C131.9 22.1231 131.487 22.1932 131.006 22.1932ZM131.376 20.8295C131.845 20.8295 132.247 20.7367 132.58 20.5511C132.917 20.3655 133.173 20.1231 133.347 19.8239C133.525 19.5208 133.614 19.197 133.614 18.8523V17.7273C133.554 17.7879 133.436 17.8447 133.262 17.8977C133.091 17.947 132.896 17.9905 132.677 18.0284C132.457 18.0625 132.243 18.0947 132.035 18.125C131.826 18.1515 131.652 18.1742 131.512 18.1932C131.182 18.2348 130.881 18.3049 130.608 18.4034C130.34 18.5019 130.124 18.6439 129.961 18.8295C129.802 19.0114 129.722 19.2538 129.722 19.5568C129.722 19.9773 129.877 20.2955 130.188 20.5114C130.499 20.7235 130.894 20.8295 131.376 20.8295ZM137.096 22V13.2727H138.795V22H137.096ZM137.954 11.9261C137.658 11.9261 137.405 11.8277 137.192 11.6307C136.984 11.4299 136.88 11.1913 136.88 10.9148C136.88 10.6345 136.984 10.3958 137.192 10.1989C137.405 9.99811 137.658 9.89773 137.954 9.89773C138.249 9.89773 138.501 9.99811 138.709 10.1989C138.922 10.3958 139.028 10.6345 139.028 10.9148C139.028 11.1913 138.922 11.4299 138.709 11.6307C138.501 11.8277 138.249 11.9261 137.954 11.9261ZM142.299 10.3636V22H140.6V10.3636H142.299ZM150.644 15.4034L149.105 15.6761C149.04 15.4792 148.938 15.2917 148.798 15.1136C148.661 14.9356 148.476 14.7898 148.241 14.6761C148.006 14.5625 147.712 14.5057 147.36 14.5057C146.879 14.5057 146.478 14.6136 146.156 14.8295C145.834 15.0417 145.673 15.3163 145.673 15.6534C145.673 15.9451 145.781 16.1799 145.997 16.358C146.212 16.536 146.561 16.6818 147.042 16.7955L148.428 17.1136C149.231 17.2992 149.83 17.5852 150.224 17.9716C150.618 18.358 150.815 18.8598 150.815 19.4773C150.815 20 150.663 20.4659 150.36 20.875C150.061 21.2803 149.642 21.5985 149.105 21.8295C148.57 22.0606 147.951 22.1761 147.247 22.1761C146.269 22.1761 145.472 21.9678 144.855 21.5511C144.237 21.1307 143.858 20.5341 143.718 19.7614L145.36 19.5114C145.462 19.9394 145.673 20.2633 145.991 20.483C146.309 20.6989 146.724 20.8068 147.235 20.8068C147.792 20.8068 148.237 20.6913 148.57 20.4602C148.904 20.2254 149.07 19.9394 149.07 19.6023C149.07 19.3295 148.968 19.1004 148.764 18.9148C148.563 18.7292 148.254 18.589 147.837 18.4943L146.36 18.1705C145.546 17.9848 144.944 17.6894 144.553 17.2841C144.167 16.8788 143.974 16.3655 143.974 15.7443C143.974 15.2292 144.118 14.7784 144.406 14.392C144.694 14.0057 145.091 13.7045 145.599 13.4886C146.106 13.2689 146.688 13.1591 147.343 13.1591C148.286 13.1591 149.029 13.3636 149.57 13.7727C150.112 14.178 150.47 14.7216 150.644 15.4034Z" fill="white"/>
</svg>
