<svg width="22" height="22" viewBox="0 0 22 22" fill="none" xmlns="http://www.w3.org/2000/svg">
<path d="M19.8661 0.600098H2.13701C1.72978 0.600098 1.33924 0.761867 1.05128 1.04982C0.763332 1.33777 0.601562 1.72832 0.601562 2.13554V19.8647C0.601562 20.2719 0.763332 20.6624 1.05128 20.9504C1.33924 21.2383 1.72978 21.4001 2.13701 21.4001H19.8661C20.2733 21.4001 20.6639 21.2383 20.9518 20.9504C21.2398 20.6624 21.4016 20.2719 21.4016 19.8647V2.13554C21.4016 1.72832 21.2398 1.33777 20.9518 1.04982C20.6639 0.761867 20.2733 0.600098 19.8661 0.600098ZM6.80112 18.3191H3.6739V8.38565H6.80112V18.3191ZM5.23534 7.0091C4.88061 7.0071 4.53442 6.90007 4.24047 6.70151C3.94651 6.50295 3.71796 6.22176 3.58366 5.89343C3.44936 5.5651 3.41532 5.20434 3.48586 4.85669C3.55639 4.50904 3.72832 4.19007 3.97996 3.94004C4.2316 3.69001 4.55167 3.52013 4.89977 3.45183C5.24786 3.38353 5.60839 3.41988 5.93585 3.55628C6.26331 3.69269 6.54303 3.92304 6.7397 4.21827C6.93637 4.51349 7.04118 4.86036 7.0409 5.2151C7.04424 5.45259 6.99974 5.68833 6.91004 5.90826C6.82034 6.12819 6.68728 6.32781 6.51879 6.49522C6.3503 6.66263 6.14983 6.79441 5.92933 6.8827C5.70883 6.97098 5.47281 7.01397 5.23534 7.0091ZM18.3278 18.3278H15.202V12.901C15.202 11.3005 14.5217 10.8065 13.6435 10.8065C12.7161 10.8065 11.8061 11.5057 11.8061 12.9414V18.3278H8.67889V8.39288H11.6862V9.76943H11.7267C12.0286 9.15843 13.0859 8.1141 14.6993 8.1141C16.4442 8.1141 18.3292 9.14977 18.3292 12.1831L18.3278 18.3278Z" fill="white"/>
</svg>
